# xmcd CD database file
#
# Track frame offsets:
#	150
#	15678
#	31095
#	49041
#	64385
#	82700
#	97345
#	112317
#	129384
#	146919
#	164321
#	179768
#	197922
#	213903
#	233888
#	249766
#	269812
#
# Disc length: 3832 seconds
#
# Revision: 3
# Processed by: cddbd v1.5.1PL0 Copyright (c) Steve Scherf et al.
# Submitted via: CDex 1.51
#
DISCID=fd0ef611
DTITLE=Various Artist - Promo Only Canada September 2004 Country Radio
DYEAR=2004
DGENRE=Country
TTITLE0=Lonestar - Mr. Mom
TTITLE1=Blake Shelton - Some Beach
TTITLE2=Sugarland - Baby Girl
TTITLE3=Brooks and Dunn - That's What It's All About
TTITLE4=Kellie Coffey - Dance With My Father
TTITLE5=Clay Walker - Jesus Was A Country Boy
TTITLE6=Darryl Worley - Awful Beautiful Life
TTITLE7=Clint Black - My Imagination
TTITLE8=Ronan Keating and Leann Rimes - Last Thing On My Mind
TTITLE9=Anita Cochran F Conway Twitty - (I Wanna Hear) A Cheatin' Song
TTITLE10=Diamond Rio - Can't You Tell
TTITLE11=SheDaisy - Come Home Soon
TTITLE12=Montgomery Gentry - You Do Your Thing
TTITLE13=John Michael Montgomery - Goes Good With Beer
TTITLE14=Katrina Elam - No End In Sight
TTITLE15=Kid Rock - Single Father
TTITLE16=Doug Stone - How Do I Get Off The Moon
EXTD=YEAR: 2004
EXTT0=
EXTT1=
EXTT2=
EXTT3=
EXTT4=
EXTT5=
EXTT6=
EXTT7=
EXTT8=
EXTT9=
EXTT10=
EXTT11=
EXTT12=
EXTT13=
EXTT14=
EXTT15=
EXTT16=
PLAYORDER=
